<svg width="4723" height="664" viewBox="0 0 4723 664" fill="none" xmlns="http://www.w3.org/2000/svg">
<path d="M762.828 537.088L896.136 30.6658H1086.04L1222.33 537.088H1097.22L990.718 90.2449H989.228L880.496 537.088H762.828ZM848.473 409.738V314.411H1129.98V409.738H848.473Z" fill="black"/>
<path d="M1260.92 30.6658H1383.06V537.088H1260.92V30.6658Z" fill="black"/>
<path d="M1588.06 544.536C1558.77 544.536 1532.21 541.309 1508.38 534.854C1485.04 528.4 1464.93 520.704 1448.05 511.767V398.567C1465.43 410.483 1485.04 420.909 1506.89 429.846C1529.23 438.783 1552.56 443.251 1576.89 443.251C1602.21 443.251 1621.82 438.286 1635.73 428.357C1649.63 418.427 1656.58 406.014 1656.58 391.12C1656.58 380.693 1653.1 371.756 1646.15 364.309C1639.7 356.365 1628.28 349.166 1611.89 342.712L1549.34 318.135C1531.96 311.184 1515.33 301.999 1499.44 290.58C1483.55 279.16 1470.64 264.514 1460.71 246.64C1450.78 228.766 1445.82 206.672 1445.82 180.358C1445.82 149.079 1453.76 121.772 1469.65 98.437C1485.54 74.6054 1508.13 56.2352 1537.42 43.3263C1566.71 29.921 1601.47 23.2184 1641.68 23.2184C1667.01 23.2184 1690.09 25.9491 1710.94 31.4105C1732.29 36.3755 1751.41 43.0781 1768.29 51.5185V158.016C1751.41 148.086 1732.79 140.142 1712.43 134.185C1692.08 127.73 1670.98 124.503 1649.13 124.503C1623.31 124.503 1603.21 128.971 1588.81 137.908C1574.41 146.349 1567.21 157.768 1567.21 172.166C1567.21 181.6 1570.44 189.792 1576.89 196.743C1583.84 203.197 1594.52 209.155 1608.92 214.616L1671.47 239.193C1702.26 251.605 1727.58 268.486 1747.44 289.835C1767.79 311.184 1777.97 341.719 1777.97 381.438C1777.97 414.206 1770.52 442.755 1755.63 467.083C1741.23 491.411 1719.88 510.526 1691.58 524.428C1663.28 537.833 1628.78 544.536 1588.06 544.536Z" fill="black"/>
<path d="M1982.1 543.046C1940.89 543.046 1909.61 533.365 1888.26 514.002C1867.41 494.142 1856.98 463.856 1856.98 423.143V249.619H1798.89V157.271H1856.98V67.9027L1976.14 49.2843V157.271H2053.59V249.619H1976.14V406.759C1976.14 433.073 1992.03 446.23 2023.8 446.23C2028.27 446.23 2032.49 445.982 2036.47 445.486C2040.93 444.989 2045.15 444.244 2049.13 443.251V532.62C2039.69 536.096 2029.27 538.578 2017.85 540.067C2006.92 542.053 1995.01 543.046 1982.1 543.046Z" fill="black"/>
<path d="M2281.85 546.025C2239.64 546.025 2205.63 538.826 2179.82 524.428C2154 510.03 2135.13 490.418 2123.22 465.594C2111.8 440.272 2106.09 411.476 2106.09 379.204V157.271H2225.25V379.204C2225.25 400.056 2229.96 416.689 2239.4 429.101C2249.33 441.514 2263.97 447.72 2283.33 447.72C2303.69 447.72 2318.34 441.514 2327.27 429.101C2336.71 416.192 2341.42 399.56 2341.42 379.204V157.271H2460.58V379.204C2460.58 411.476 2454.38 440.272 2441.96 465.594C2430.05 490.418 2410.93 510.03 2384.62 524.428C2358.31 538.826 2324.05 546.025 2281.85 546.025Z" fill="black"/>
<path d="M2680.55 546.025C2647.28 546.025 2617.25 537.833 2590.44 521.449C2564.12 505.065 2543.27 482.226 2527.88 452.933C2512.98 423.143 2505.53 388.637 2505.53 349.414C2505.53 309.198 2513.23 274.196 2528.62 244.406C2544.51 214.12 2565.86 190.536 2592.67 173.656C2619.48 156.775 2649.52 148.335 2682.78 148.335C2710.59 148.335 2734.91 154.293 2755.77 166.208C2776.62 178.124 2792.01 195.005 2801.94 216.851H2803.43V23.2184H2922.59V537.088H2809.39V466.338H2807.9C2798.47 491.163 2782.58 510.774 2760.24 525.173C2737.89 539.074 2711.33 546.025 2680.55 546.025ZM2716.3 447.72C2742.61 447.72 2764.21 438.286 2781.09 419.42C2797.97 400.553 2806.41 376.473 2806.41 347.18C2806.41 317.887 2797.97 293.807 2781.09 274.94C2764.21 256.074 2742.61 246.64 2716.3 246.64C2689.49 246.64 2667.64 256.074 2650.76 274.94C2634.37 293.31 2626.18 317.39 2626.18 347.18C2626.18 376.473 2634.62 400.553 2651.5 419.42C2668.38 438.286 2689.98 447.72 2716.3 447.72Z" fill="black"/>
<path d="M2953.71 157.271H3078.08L3162.24 492.404H3163.73L3249.37 157.271H3372.25L3229.26 663.694H3109.36L3147.34 537.088H3059.46L2953.71 157.271Z" fill="black"/>
<path d="M3406.81 30.6658H3528.95V222.809H3697.26V30.6658H3819.4V537.088H3697.26V327.072H3528.95V537.088H3406.81V30.6658Z" fill="black"/>
<path d="M4062.27 546.025C4020.06 546.025 3986.05 538.826 3960.24 524.428C3934.42 510.03 3915.55 490.418 3903.64 465.594C3892.22 440.272 3886.51 411.476 3886.51 379.204V157.271H4005.67V379.204C4005.67 400.056 4010.38 416.689 4019.82 429.101C4029.75 441.514 4044.39 447.72 4063.76 447.72C4084.11 447.72 4098.76 441.514 4107.7 429.101C4117.13 416.192 4121.85 399.56 4121.85 379.204V157.271H4241V379.204C4241 411.476 4234.8 440.272 4222.39 465.594C4210.47 490.418 4191.35 510.03 4165.04 524.428C4138.73 538.826 4104.47 546.025 4062.27 546.025Z" fill="black"/>
<path d="M4542.89 546.025C4510.12 546.025 4483.81 539.074 4463.95 525.173C4444.09 510.774 4429.44 493.645 4420.01 473.786H4418.52V537.088H4305.32V15.771H4424.48V224.298H4425.97C4431.93 212.879 4440.12 201.459 4450.54 190.04C4460.97 178.124 4474.38 168.194 4490.76 160.25C4507.14 152.307 4527.25 148.335 4551.08 148.335C4583.85 148.335 4613.14 156.527 4638.96 172.911C4664.78 189.295 4685.14 212.382 4700.03 242.172C4714.93 271.465 4722.37 305.971 4722.37 345.69C4722.37 385.41 4714.43 420.413 4698.54 450.699C4683.15 480.488 4661.8 503.823 4634.49 520.704C4607.68 537.585 4577.15 546.025 4542.89 546.025ZM4511.61 447.72C4537.93 447.72 4559.52 438.535 4576.4 420.164C4593.29 401.794 4601.73 377.963 4601.73 348.669C4601.73 319.376 4593.29 295.048 4576.4 275.685C4560.02 256.322 4538.42 246.64 4511.61 246.64C4485.3 246.64 4463.7 256.074 4446.82 274.94C4429.94 293.807 4421.5 317.887 4421.5 347.18C4421.5 376.473 4429.69 400.553 4446.07 419.42C4462.96 438.286 4484.8 447.72 4511.61 447.72Z" fill="black"/>
<rect y="6.10352e-05" width="581.827" height="581.827" rx="116.366" fill="url(#paint0_radial_17_8)"/>
<defs>
<radialGradient id="paint0_radial_17_8" cx="0" cy="0" r="1" gradientUnits="userSpaceOnUse" gradientTransform="translate(291 663) rotate(-90) scale(663 1076.45)">
<stop stop-color="white"/>
<stop offset="0.245192" stop-color="#A9DCBB"/>
<stop offset="0.5" stop-color="#468F60"/>
<stop offset="0.75" stop-color="#2A603D"/>
<stop offset="1" stop-color="#072E14"/>
</radialGradient>
</defs>
</svg>
